<?xml version="1.0" standalone="no"?><!DOCTYPE svg PUBLIC "-//W3C//DTD SVG 1.1//EN" "http://www.w3.org/Graphics/SVG/1.1/DTD/svg11.dtd"><svg t="1515500475482" class="icon" style="" viewBox="0 0 1024 1024" version="1.1" xmlns="http://www.w3.org/2000/svg" p-id="1889" xmlns:xlink="http://www.w3.org/1999/xlink" width="40" height="40"><defs><style type="text/css"></style></defs><path d="M962 475.736c0 209.592-201.611 380.02-450.362 380.02-68.898 0-133.441-13.061-192.183-36.262L149.027 928.277l26.831-198.713C105.514 662.127 62 572.922 62 475.736 62 266.15 263.612 95.723 512.363 95.723 760.389 95.723 962 266.15 962 475.736zM212.34 831.225l108.9-71.045 16.704-1.568c53.052 20.061 110.293 42.018 170.325 42.018 217.095 0 393.701-151.709 393.701-323.591 0-171.886-176.606-322.397-393.701-322.397-217.095 0-386.542 149.844-386.542 322.397 0 75.575 27.742 149.142 90.569 205.995l18.352 30.969-18.308 117.222z m49.821-372.893c0 29.243 23.701 52.94 52.944 52.94 29.239 0 52.939-23.697 52.939-52.94 0-29.237-23.7-52.939-52.939-52.939-29.243-0.001-52.944 23.701-52.944 52.939z m209.591 0c0 29.243 23.701 52.94 52.94 52.94 29.242 0 52.944-23.697 52.944-52.94 0-29.237-23.702-52.939-52.944-52.939-29.238-0.001-52.94 23.701-52.94 52.939z m209.592 0c0 29.243 23.701 52.94 52.935 52.94 29.243 0 52.945-23.697 52.945-52.94 0-29.237-23.702-52.939-52.945-52.939-29.234-0.001-52.935 23.701-52.935 52.939z m0 0" p-id="1890" fill="#ffffff"></path></svg>