<?xml version="1.0" standalone="no"?><!DOCTYPE svg PUBLIC "-//W3C//DTD SVG 1.1//EN" "http://www.w3.org/Graphics/SVG/1.1/DTD/svg11.dtd"><svg t="1566288153867" class="icon" viewBox="0 0 1024 1024" version="1.1" xmlns="http://www.w3.org/2000/svg" p-id="5248" xmlns:xlink="http://www.w3.org/1999/xlink" width="200" height="200"><defs><style type="text/css"></style></defs><path d="M510.472204 63.624063c-247.563352 0-448.25314 200.689788-448.25314 448.25314S262.908852 960.130344 510.472204 960.130344s448.25314-200.689788 448.25314-448.25314S758.035556 63.624063 510.472204 63.624063zM789.084713 790.489712c-36.20355 36.20355-78.346369 64.620763-125.259842 84.463694-48.541553 20.531616-100.136651 30.94171-153.352667 30.94171-53.216016 0-104.811114-10.410094-153.352667-30.94171-46.912449-19.84293-89.056292-48.260144-125.259842-84.463694-36.20355-36.20355-64.620763-78.346369-84.463694-125.259842-20.531616-48.541553-30.94171-100.136651-30.94171-153.352667 0-53.216016 10.410094-104.811114 30.94171-153.352667 19.84293-46.913473 48.260144-89.056292 84.463694-125.259842 36.20355-36.20355 78.346369-64.620763 125.259842-84.463694 48.541553-20.531616 100.136651-30.94171 153.352667-30.94171 53.216016 0 104.811114 10.410094 153.352667 30.94171 46.913473 19.84293 89.056292 48.260144 125.259842 84.463694s64.620763 78.346369 84.463694 125.259842c20.531616 48.541553 30.94171 100.136651 30.94171 153.352667 0 53.216016-10.410094 104.811114-30.94171 153.352667C853.705476 712.14232 825.288263 754.286162 789.084713 790.489712z" p-id="5249"></path><path d="M739.692792 484.882386l-202.102974 0 0-202.102974c0-14.97711-12.140505-27.117614-27.117614-27.117614s-27.117614 12.140505-27.117614 27.117614l0 202.102974-202.102974 0c-14.97711 0-27.117614 12.140505-27.117614 27.117614 0 14.976086 12.140505 27.117614 27.117614 27.117614l202.102974 0 0 202.102974c0 14.976086 12.140505 27.117614 27.117614 27.117614s27.117614-12.141528 27.117614-27.117614l0-202.102974 202.102974 0c14.97711 0 27.117614-12.141528 27.117614-27.117614C766.810407 497.02289 754.669902 484.882386 739.692792 484.882386z" p-id="5250"></path></svg>