<?xml version="1.0" standalone="no"?><!DOCTYPE svg PUBLIC "-//W3C//DTD SVG 1.1//EN" "http://www.w3.org/Graphics/SVG/1.1/DTD/svg11.dtd"><svg t="1515503435341" class="icon" style="" viewBox="0 0 1049 1024" version="1.1" xmlns="http://www.w3.org/2000/svg" p-id="2078" xmlns:xlink="http://www.w3.org/1999/xlink" width="40.9765625" height="40"><defs><style type="text/css"></style></defs><path d="M537.807232 801.032863l1.791929 5.682974c27.288515 109.896432 101.807153 168.722893 218.026533 171.769172 112.379533 8.498862 201.208002-34.251439 225.629432-101.935148 10.137197-28.030886 16.024963-82.249531 5.452583-125.076628 0.025599-1.817528-4.172634-18.098481-4.607817-19.660019-11.417146-39.883215-26.187759-97.788113-28.338074-116.987349-10.521182-107.208538-4.940604-138.669688 0-163.78229 0.639975-5.27339 2.25271-15.052202 3.839848-20.735176 1.535939-5.708573 5.554979-10.82837 3.839847-14.565821-9.471624-20.63278-34.942611-10.495583-46.948534 5.426985-3.967842 5.247791-13.234674 15.666577-20.939967 37.835296-6.911725 17.458506-16.050562 77.334526-15.973765 169.362867a44.823818 44.823818 0 0 1-23.602262 40.113606c-5.196593 1.715132-20.197597 6.450944-42.878296 7.986882l-516.152283 0.844767c-21.656739 0-37.553707 12.389908-37.553707 29.874012 0 17.509704 16.127359 28.594063 37.784098 28.594064h225.143051c3.02068 11.621938 9.010842 46.02697 15.487384 65.226207zM814.09705 640.936827c37.374514-3.53266 36.606545-20.299993 36.47855-26.16216-0.127995-98.888869 7.321309-160.377625 22.296713-184.440669a116.936152 116.936152 0 0 1 33.406672-40.267199c30.309195-21.759135 65.021415-14.437826 80.380805 7.730893 2.815888 3.993441 3.071878 5.298989 3.891046 11.007562 0.665574 5.119796 0.25599 7.986883-0.793569 13.669857-8.03808 26.955729-8.396466 88.034901-1.075157 183.186318 3.53266 20.658379 10.367588 50.865178 26.878931 94.84423 11.621938 30.974769 29.131642 110.280416 13.797852 164.038279-28.850053 101.115981-127.918115 170.642817-269.250097 157.945722-146.067794-4.53102-236.278608-88.905266-270.581245-253.07154h-199.339276a63.997456 63.997456 0 1 1 0-127.994913h511.928451c2.457502 0 8.703654 0 11.980324-0.48638zM221.327012 383.078277c-37.374514 3.53266-36.632144 20.299993-36.47855 26.16216 0.102396 98.888869-7.321309 160.377625-22.322312 184.440668a116.936152 116.936152 0 0 1-33.406673 40.2672c-30.283596 21.759135-65.021415 14.437826-80.380804-7.730893-2.790289-3.993441-3.071878-5.298989-3.865447-11.007563-0.665574-5.119796-0.25599-7.986883 0.76797-13.669856 8.03808-26.955729 8.396466-88.034901 1.075157-183.186319-3.507061-20.658379-10.341989-50.865178-26.878932-94.84423C8.241082 292.534676-9.243023 213.229028 6.090768 159.471165 34.864024 58.355184 133.983284-11.171652 275.289667 1.525443c146.093393 4.53102 236.278608 88.905266 270.581245 253.071541h199.339276a63.997456 63.997456 0 1 1 0 127.994912H233.281737c-2.431903 0-8.703654 0-11.954725 0.486381z m275.649843-160.377625l-1.791929-5.708573c-27.314114-109.896432-101.832752-168.697294-218.026533-171.769173-112.405132-8.498862-201.208002 34.277037-225.65503 101.960747-10.111598 28.005287-16.024963 82.223932-5.452584 125.05103 0 1.817528 4.172634 18.098481 4.607817 19.660018 11.417146 39.883215 26.187759 97.788113 28.363673 117.012949 10.495583 107.182939 4.940604 138.644089 0 163.756691a176.632979 176.632979 0 0 1-3.839848 20.735175c-1.561538 5.708573-5.580578 10.82837-3.839847 14.565821 9.471624 20.63278 34.917012 10.495583 46.948534-5.426984 3.942243-5.222192 13.234674-15.666577 20.914369-37.835296 6.911725-17.458506 16.076161-77.308927 15.999364-169.362868a44.823818 44.823818 0 0 1 23.576662-40.113605c5.222192-1.715132 20.223196-6.450944 42.903895-7.986883l516.152283-0.844766c21.656739 0 37.528108-12.389908 37.528108-29.874013 0-17.509704-16.10176-28.594063-37.758499-28.594063h-225.168649c-2.995081-11.621938-9.010842-46.02697-15.461786-65.226207z" fill="#ffffff" p-id="2079"></path></svg>