<?xml version="1.0" standalone="no"?><!DOCTYPE svg PUBLIC "-//W3C//DTD SVG 1.1//EN" "http://www.w3.org/Graphics/SVG/1.1/DTD/svg11.dtd"><svg t="1566372046861" class="icon" viewBox="0 0 1024 1024" version="1.1" xmlns="http://www.w3.org/2000/svg" p-id="4163" width="20" height="20" xmlns:xlink="http://www.w3.org/1999/xlink"><defs><style type="text/css"></style></defs><path d="M298.164706 198.776471c60.235294-57.223529 138.541176-72.282353 183.717647-75.294118v-30.117647c0-18.070588 12.047059-30.117647 30.117647-30.117647s30.117647 12.047059 30.117647 30.117647v30.117647c222.870588 9.035294 262.023529 180.705882 262.023529 301.176471 0 126.494118 30.117647 262.023529 99.388236 346.352941 69.270588 84.329412 0 102.4-39.152941 102.4h-96.376471l-42.164706-57.22353h72.282353c72.282353 0 63.247059 3.011765 18.070588-66.258823s-78.305882-207.811765-78.305882-316.235294c0-108.423529-24.094118-256-225.882353-249.976471-3.011765 0-111.435294-9.035294-177.694118 69.270588l-36.141176-54.211764z m-66.258824 114.447058c-9.035294 30.117647-12.047059 66.258824-12.047058 105.411765 0 138.541176-36.141176 268.047059-93.364706 343.341177-57.223529 72.282353-39.152941 108.423529 18.070588 108.423529h478.870588l-42.164706-60.235294h-376.470588c-60.235294 0-18.070588-24.094118 6.023529-72.282353 27.105882-48.188235 72.282353-189.741176 72.282353-310.211765 0-15.058824 0-30.117647 3.011765-45.17647l-54.211765-69.270589z m280.094118 680.658824c90.352941 0 90.352941-90.352941 90.352941-90.352941h-180.705882s0 90.352941 90.352941 90.352941z m-334.305882-810.164706c-9.035294-12.047059-6.023529-33.129412 6.023529-42.164706 15.058824-9.035294 33.129412-6.023529 42.164706 6.02353l548.141176 783.058823c9.035294 12.047059 6.023529 33.129412-6.023529 42.164706-15.058824 9.035294-33.129412 6.023529-42.164706-6.023529l-548.141176-783.058824z" fill="" p-id="4164"></path></svg>