<?xml version="1.0" standalone="no"?><!DOCTYPE svg PUBLIC "-//W3C//DTD SVG 1.1//EN" "http://www.w3.org/Graphics/SVG/1.1/DTD/svg11.dtd"><svg t="1566520917314" class="icon" viewBox="0 0 1024 1024" version="1.1" xmlns="http://www.w3.org/2000/svg" p-id="4995" xmlns:xlink="http://www.w3.org/1999/xlink" width="50" height="50"><defs><style type="text/css"></style></defs><path d="M624.874667 273.429333c75.626667 0 137.173333 57.728 137.173333 129.237334a125.461333 125.461333 0 0 1-17.728 63.552c-17.216 28.608-44.864 49.792-78.229333 59.861333-8.874667 2.645333-15.658667 3.712-21.909334 3.712-14.613333 0-26.069333-11.648-26.069333-26.496s11.477333-26.496 26.069333-26.496c1.045333 0 3.136 0 5.738667-1.066667 22.421333-6.357333 40.170667-19.605333 50.069333-37.077333a68.117333 68.117333 0 0 0 9.92-36.010667c0-41.856-38.08-76.266667-84.501333-76.266666-16.170667 0-31.808 4.245333-45.888 12.181333-24.512 14.293333-39.125333 38.144-39.125333 64.085333v221.930667c0 45.013333-24.512 86.336-65.194667 109.653333a141.717333 141.717333 0 0 1-71.445333 19.072c-75.626667 0-137.173333-57.728-137.173334-129.237333 0-22.250667 6.250667-43.968 17.728-63.552 17.216-28.608 44.864-49.792 78.229334-59.861333 9.386667-2.645333 15.658667-3.712 21.909333-3.712a26.026667 26.026667 0 0 1 26.069333 26.496 26.026667 26.026667 0 0 1-26.069333 26.496 14.293333 14.293333 0 0 0-5.738667 1.066666c-22.421333 6.890667-40.170667 20.117333-50.069333 37.077334a68.117333 68.117333 0 0 0-9.92 36.010666c0 41.856 38.08 76.266667 85.013333 76.266667 16.170667 0 31.808-4.245333 45.888-12.181333 24.512-14.293333 39.125333-38.144 39.125334-64.085334V402.666667c0-45.013333 24.512-86.336 65.194666-109.653334 21.376-13.226667 45.888-19.584 70.933334-19.584zM144.981333 512c0 202.773333 164.245333 367.018667 367.018667 367.018667S879.018667 714.773333 879.018667 512 714.773333 144.981333 512 144.981333 144.981333 309.226667 144.981333 512zM85.333333 512C85.333333 283.989333 283.989333 85.333333 512 85.333333s426.666667 198.656 426.666667 426.666667-198.656 426.666667-426.666667 426.666667S85.333333 740.010667 85.333333 512z" fill="#5C61F1" p-id="4996"></path></svg>