<?xml version="1.0" standalone="no"?><!DOCTYPE svg PUBLIC "-//W3C//DTD SVG 1.1//EN" "http://www.w3.org/Graphics/SVG/1.1/DTD/svg11.dtd"><svg t="1566520810639" class="icon" viewBox="0 0 1024 1024" version="1.1" xmlns="http://www.w3.org/2000/svg" p-id="3139" xmlns:xlink="http://www.w3.org/1999/xlink" width="50" height="50"><defs><style type="text/css"></style></defs><path d="M742.826667 938.666667c-170.453333 0-223.402667-119.104-238.442667-171.648l-154.069333-0.554667c-21.525333-4.416-61.930667-27.562667-60.714667-83.584 0.533333-24.938667 7.936-44.352 21.994667-57.685333a58.346667 58.346667 0 0 1 40.085333-16.128l397.098667-0.021334c9.621333-0.213333 21.205333-5.269333 22.058666-28.096 0.106667-6.336 0.064-13.653333 0-21.162666-0.298667-44.202667-0.64-94.314667 28.970667-124.138667 14.186667-14.293333 32.896-21.525333 55.573333-21.525333 52.736 0 73.237333 47.722667 74.368 80.661333l30.741334 280.810667-1.088 1.130666c-0.597333 39.082667-14.464 74.581333-39.573334 101.504-35.925333 38.528-92.949333 58.816-169.472 60.352l-0.554666-27.712 0.533333 27.712c-2.538667 0.064-5.034667 0.085333-7.509333 0.085334zM359.872 711.573333h191.125333l2.965334 24.384c0.789333 6.037333 21.653333 150.122667 195.264 147.221334 60.970667-1.237333 104.725333-15.616 130.048-42.752 17.216-18.453333 25.941333-43.861333 24.576-71.573334l-0.106667-2.069333-29.397333-269.589333c-0.149333-4.437333-1.856-27.626667-18.965334-27.626667-11.114667 0-14.826667 3.754667-16.234666 5.162667-13.354667 13.44-13.077333 54.613333-12.864 84.693333 0.064 8 0.106667 15.765333-0.021334 23.04-2.24 61.504-48.448 82.709333-78.058666 82.026667l-397.376 0.021333c-2.197333 0.362667-5.504 6.677333-5.802667 19.562667-0.426667 18.730667 8.981333 25.258667 14.848 27.498666z m-191.829333-101.674666c-52.757333 0-73.237333-47.701333-74.389334-80.64L64.341333 261.333333c-0.234667-1.344-8.554667-60.224 33.557334-110.186666 35.392-42.005333 93.994667-64.128 174.165333-65.728 175.616-4.224 230.677333 118.250667 245.952 171.562666l154.069333 0.554667c21.525333 4.416 61.930667 27.562667 60.736 83.584-0.533333 24.96-7.936 44.352-21.994666 57.706667-16.874667 16-36.394667 16.085333-40.085334 16.128l-397.098666 0.021333c-13.632 0.32-20.693333 9.6-21.013334 27.605333a814.08 814.08 0 0 0-0.021333 21.696c0.298667 44.181333 0.618667 94.272-28.970667 124.074667-14.208 14.314667-32.896 21.546667-55.594666 21.546667zM279.317333 140.8l-6.144 0.064c-63.061333 1.28-107.605333 16.554667-132.373333 45.44-26.112 30.421333-21.653333 66.602667-21.461333 68.117333l29.717333 272.426667c0.149333 4.437333 1.856 27.605333 18.986667 27.605333 11.114667 0 14.826667-3.754667 16.234666-5.162666 13.354667-13.44 13.077333-54.592 12.885334-84.650667-0.064-8-0.106667-15.786667 0.021333-23.082667 0.576-31.914667 13.354667-50.773333 23.978667-60.970666 21.952-21.098667 49.813333-21.333333 53.056-21.056l397.376-0.021334c2.197333-0.362667 5.504-6.677333 5.802666-19.562666 0.384-18.752-9.002667-25.28-14.869333-27.52h-191.104l-2.965333-24.384c-0.789333-5.952-21.184-147.242667-189.141334-147.242667z" fill="#3984E1" p-id="3140"></path></svg>