<?xml version="1.0" standalone="no"?><!DOCTYPE svg PUBLIC "-//W3C//DTD SVG 1.1//EN" "http://www.w3.org/Graphics/SVG/1.1/DTD/svg11.dtd"><svg t="1566520826987" class="icon" viewBox="0 0 1024 1024" version="1.1" xmlns="http://www.w3.org/2000/svg" p-id="3306" xmlns:xlink="http://www.w3.org/1999/xlink" width="50" height="50"><defs><style type="text/css"></style></defs><path d="M794.325333 298.922667l72.128 269.205333-107.498666 33.152-89.088-269.013333 124.458666-33.344m5.888-48.277334c-3.264 0-6.592 0.426667-9.898666 1.301334l-149.888 40.170666a29.44 29.44 0 0 0-20.821334 36.053334l97.152 293.333333a38.144 38.144 0 0 0 46.698667 26.965333l122.965333-37.909333a38.101333 38.101333 0 0 0 26.944-46.677333l-76.352-284.949334a38.122667 38.122667 0 0 0-36.8-28.288zM565.674667 765.824l179.306666-48.042667 12.010667 44.8-179.306667 48.042667z" fill="#218CDF" p-id="3307"></path><path d="M332.970667 349.674667c13.632 0 27.093333 4.330667 41.706666 13.589333l184.554667 113.578667c-0.128 21.034667-4.224 50.538667-20.586667 69.504-13.610667 15.744-35.157333 23.402667-65.877333 23.402666-11.050667 0-23.253333-1.045333-36.266667-3.114666l-4.522666-0.64h-3.626667c-16.128 0-31.573333 7.701333-41.322667 20.629333a52.117333 52.117333 0 0 0-8.469333 45.504l49.450667 173.077333-129.621334 78.677334-137.92-163.669334 84.928-68.394666a68.330667 68.330667 0 0 0 23.594667-68.608c-22.848-96.448-22.250667-181.973333 1.408-203.349334l1.706667-1.6 1.258666-1.344c0.277333-0.277333 26.069333-27.242667 59.605334-27.242666m0-45.845334c-55.296 0-93.269333 42.005333-93.269334 42.005334-56.554667 51.072-26.176 202.005333-15.296 247.936 1.984 8.341333-1.066667 16.96-7.744 22.336L121.813333 692.501333a33.408 33.408 0 0 0-5.717333 46.165334l153.024 181.546666a33.408 33.408 0 0 0 46.485333 6.805334l166.08-100.821334-59.050666-206.698666a6.037333 6.037333 0 0 1 6.656-7.616c15.872 2.517333 30.293333 3.690667 43.456 3.690666 156.757333 0 130.602667-165.397333 130.602666-165.397333l-204.672-125.952c-23.509333-14.912-45.738667-20.394667-65.706666-20.394667z" fill="#218DE0" p-id="3308"></path><path d="M324.394667 239.146667a16.128 16.128 0 0 1 11.456-19.861334l316.096-84.693333a16.213333 16.213333 0 0 1 19.861333 11.456l41.536 155.050667 46.997333-12.608-41.536-155.050667a64.384 64.384 0 0 0-30.229333-39.402667 64.213333 64.213333 0 0 0-49.237333-6.464l-316.096 84.693334c-16.746667 4.48-30.72 15.232-39.402667 30.229333a64.426667 64.426667 0 0 0-6.464 49.237333l21.845333 81.514667 46.997334-12.586667-21.824-81.514666zM890.005333 772.266667l-43.157333-161.088-46.997333 12.608 43.157333 161.088a16.256 16.256 0 0 1-11.456 19.882666l-316.096 84.693334a16.234667 16.234667 0 0 1-19.882667-11.456l-77.909333-290.730667-25.664 12.586667 56.576 290.752a64.981333 64.981333 0 0 0 79.445333 45.845333l316.096-84.693333a64.469333 64.469333 0 0 0 39.402667-30.229334 64.554667 64.554667 0 0 0 6.485333-49.258666z" fill="#218CDF" p-id="3309"></path></svg>