<?xml version="1.0" standalone="no"?><!DOCTYPE svg PUBLIC "-//W3C//DTD SVG 1.1//EN" "http://www.w3.org/Graphics/SVG/1.1/DTD/svg11.dtd"><svg t="1566520791783" class="icon" viewBox="0 0 1024 1024" version="1.1" xmlns="http://www.w3.org/2000/svg" p-id="2716" xmlns:xlink="http://www.w3.org/1999/xlink" width="50" height="50"><defs><style type="text/css"></style></defs><path d="M368.533333 602.602667l35.498667-35.52 291.818667 291.648-35.498667 35.52z" fill="#50BD81" p-id="2717"></path><path d="M574.08 689.024l-35.52-35.52L870.549333 321.706667l35.498667 35.52z" fill="#5382EF" p-id="2718"></path><path d="M174.037333 691.733333L138.538667 656.213333l300.544-300.373333 35.498666 35.52z" fill="#FFC71D" p-id="2719"></path><path d="M474.474667 640.725333h402.496v50.24H474.474667z" fill="#00B0FE" p-id="2720"></path><path d="M358.997333 452.352h50.218667V889.386667h-50.218667z" fill="#99D027" p-id="2721"></path><path d="M150.634667 348.928h419.242666v50.24H150.634667z" fill="#FF7519" p-id="2722"></path><path d="M339.072 174.186667L374.570667 138.666667l296.810666 296.64-35.498666 35.52z" fill="#F95553" p-id="2723"></path><path d="M630.122667 138.624h50.218666V567.04h-50.218666z" fill="#6467EF" p-id="2724"></path><path d="M403.626667 924.8a428.224 428.224 0 0 1-268.608-212.629333l44.309333-23.616a377.856 377.856 0 0 0 237.013333 187.648l-12.714666 48.597333z" fill="#99D027" p-id="2725"></path><path d="M711.808 889.024l-23.552-44.373333c85.802667-45.589333 152.128-124.608 181.973333-216.789334l47.765334 15.488c-33.813333 104.469333-108.970667 194.026667-206.186667 245.674667z" fill="#00B0FE" p-id="2726"></path><path d="M917.994667 643.328l-47.786667-15.488c12.096-37.376 18.24-76.458667 18.24-116.181333 0-61.952-15.338667-123.349333-44.352-177.557334l44.266667-23.701333A427.818667 427.818667 0 0 1 938.666667 511.68a426.88 426.88 0 0 1-20.672 131.648z" fill="#5382EF" p-id="2727"></path><path d="M844.096 334.122667c-46.613333-87.104-127.274667-153.664-221.333333-182.592l14.762666-48.021334c106.602667 32.810667 198.016 108.224 250.816 206.912l-44.245333 23.701334z" fill="#6467EF" p-id="2728"></path><path d="M339.968 175.466667l-22.272-43.584A421.226667 421.226667 0 0 1 511.466667 85.333333c42.922667 0 85.312 6.378667 125.930666 18.944L622.933333 151.04a376.768 376.768 0 0 0-111.488-16.746667c-60.394667 0-118.101333 13.845333-171.477333 41.173334z" fill="#F95553" p-id="2729"></path><path d="M134.805333 711.232A427.413333 427.413333 0 0 1 85.333333 511.68c0-62.058667 13.056-121.941333 38.784-177.941333l44.458667 20.437333a374.613333 374.613333 0 0 0-34.304 157.504c0 61.546667 15.125333 122.624 43.754667 176.597333l-43.221334 22.954667z" fill="#FFC71D" p-id="2730"></path><path d="M168.576 354.176l-44.437333-20.437333a428.970667 428.970667 0 0 1 193.557333-201.856l22.272 43.584a379.733333 379.733333 0 0 0-171.392 178.709333z" fill="#FF7519" p-id="2731"></path><path d="M511.893333 938.666667c-36.672 0-73.109333-4.672-108.266666-13.866667l12.714666-48.597333c89.856 23.552 189.610667 12.181333 271.914667-31.552l23.552 44.373333A427.690667 427.690667 0 0 1 511.893333 938.666667z" fill="#50BD81" p-id="2732"></path></svg>