<?xml version="1.0" standalone="no"?><!DOCTYPE svg PUBLIC "-//W3C//DTD SVG 1.1//EN" "http://www.w3.org/Graphics/SVG/1.1/DTD/svg11.dtd"><svg t="1566520899386" class="icon" viewBox="0 0 1024 1024" version="1.1" xmlns="http://www.w3.org/2000/svg" p-id="4214" xmlns:xlink="http://www.w3.org/1999/xlink" width="50" height="50"><defs><style type="text/css"></style></defs><path d="M658.304 506.282667h264.512v50.261333H658.304z" fill="#50BC80" p-id="4215"></path><path d="M705.514667 512h-46.4c0-64-61.781333-134.570667-125.781334-134.570667v-46.4c106.666667 0 172.181333 74.304 172.181334 180.970667z" fill="#3984E1" p-id="4216"></path><path d="M389.952 512h-46.4c0-106.666667 83.114667-180.970667 189.781333-180.970667v46.4c-85.333333 0-143.381333 70.570667-143.381333 134.570667z" fill="#FF7519" p-id="4217"></path><path d="M533.333333 692.970667c-106.666667 0-189.781333-74.304-189.781333-180.970667h46.4c0 64 58.048 134.570667 143.381333 134.570667v46.4z" fill="#F85553" p-id="4218"></path><path d="M533.333333 692.970667v-46.4c64 0 125.781333-70.570667 125.781334-134.570667h46.4c0 106.666667-65.514667 180.970667-172.181334 180.970667z" fill="#50BC80" p-id="4219"></path><path d="M499.392 137.216h50.261333v240.213333h-50.261333z" fill="#3984E1" p-id="4220"></path><path d="M135.765333 501.546667h255.018667v50.261333H135.765333z" fill="#FF7519" p-id="4221"></path><path d="M499.392 643.968h50.261333v258.474667h-50.261333z" fill="#F85553" p-id="4222"></path><path d="M524.544 938.666667a84.949333 84.949333 0 0 1-60.501333-25.066667L122.944 572.501333l35.541333-35.541333 341.098667 341.098667c13.333333 13.333333 36.586667 13.333333 49.898667 0l35.562666 35.541333A84.992 84.992 0 0 1 524.544 938.666667z" fill="#F85553" p-id="4223"></path><path d="M549.482667 878.058667L890.581333 536.96l35.541334 35.541333-341.077334 341.098667" fill="#50BC80" p-id="4224"></path><path d="M122.944 572.501333c-16.170667-16.149333-25.066667-37.653333-25.066667-60.501333s8.896-44.352 25.066667-60.501333L464.021333 110.4A85.013333 85.013333 0 0 1 524.544 85.333333c22.848 0 44.352 8.896 60.501333 25.066667l-35.562666 35.541333c-13.312-13.333333-36.586667-13.333333-49.898667 0L158.485333 487.04c-6.677333 6.677333-10.346667 15.530667-10.346666 24.96s3.669333 18.282667 10.346666 24.938667" fill="#FF7519" p-id="4225"></path><path d="M464.021333 110.4A85.013333 85.013333 0 0 1 524.544 85.333333c22.848 0 44.352 8.896 60.501333 25.066667l341.077334 341.098667-35.541334 35.541333L549.482667 145.941333c-13.333333-13.333333-36.586667-13.333333-49.898667 0" fill="#3984E1" p-id="4226"></path></svg>