<?xml version="1.0" standalone="no"?><!DOCTYPE svg PUBLIC "-//W3C//DTD SVG 1.1//EN" "http://www.w3.org/Graphics/SVG/1.1/DTD/svg11.dtd"><svg t="1566520882775" class="icon" viewBox="0 0 1024 1024" version="1.1" xmlns="http://www.w3.org/2000/svg" p-id="3902" xmlns:xlink="http://www.w3.org/1999/xlink" width="50" height="50"><defs><style type="text/css"></style></defs><path d="M778.666667 352v509.504c0 13.141333-10.688 23.829333-23.829334 23.829333H269.162667a23.850667 23.850667 0 0 1-23.829334-23.829333V352h533.333334m27.818666-53.333333H217.493333C203.413333 298.666667 192 310.08 192 324.16v537.344A77.162667 77.162667 0 0 0 269.162667 938.666667h485.674666A77.162667 77.162667 0 0 0 832 861.504V324.16c0-14.08-11.413333-25.493333-25.514667-25.493333z" fill="#EB5D5B" p-id="3903"></path><path d="M672 405.333333h-45.717333v-147.690666c0-67.861333-51.264-123.072-114.282667-123.072s-114.282667 55.210667-114.282667 123.072V405.333333H352v-147.690666C352 162.624 423.765333 85.333333 512 85.333333s160 77.290667 160 172.309334V405.333333z" fill="#EB5D5B" p-id="3904"></path></svg>