<?xml version="1.0" standalone="no"?><!DOCTYPE svg PUBLIC "-//W3C//DTD SVG 1.1//EN" "http://www.w3.org/Graphics/SVG/1.1/DTD/svg11.dtd"><svg t="1566631347858" class="icon" viewBox="0 0 1024 1024" version="1.1" xmlns="http://www.w3.org/2000/svg" p-id="3538" width="50" height="50" xmlns:xlink="http://www.w3.org/1999/xlink"><defs><style type="text/css"></style></defs><path d="M519.253333 106.666667C268.224 106.666667 64 271.168 64 473.386667c0 110.933333 60.842667 214.144 167.168 284.074666-1.066667 10.56-7.594667 33.066667-11.733333 47.274667-13.44 46.016-23.125333 79.274667 2.112 90.88 3.584 1.664 7.552 2.517333 11.776 2.517333 18.368 0 40.32-15.957333 77.525333-44.138666 16.277333-12.330667 42.986667-32.554667 52.992-35.797334 49.728 14.528 102.016 21.888 155.413333 21.888 251.029333 0 455.253333-164.522667 455.253334-366.72C974.506667 271.168 770.282667 106.666667 519.253333 106.666667z m0 693.504c-50.474667 0-99.84-7.082667-146.645333-21.013334a29.12 29.12 0 0 0-8.277333-1.173333c-18.368 0-40.32 15.957333-77.589334 44.202667-10.816 8.170667-26.24 19.84-38.293333 27.712 2.602667-11.008 6.464-24.384 9.28-34.005334 13.141333-45.098667 21.824-74.88 0.853333-88.234666-98.304-62.506667-154.666667-155.2-154.666666-254.293334 0-180.181333 186.325333-326.784 415.338666-326.784 153.173333 0 287.168 65.621333 359.189334 162.986667-74.602667 35.306667-418.986667 197.461333-445.653334 194.496-29.930667-3.328-108.906667-73.173333-108.906666-73.173333s-29.12-14.122667-28.288 12.458666c0 0 83.157333 194.581333 97.28 196.266667 14.144 1.642667 13.333333 11.605333 74.026666-27.456 53.12-34.218667 362.965333-212.992 439.445334-257.088 18.154667 36.693333 28.288 76.586667 28.288 118.293333-0.042667 180.202667-186.368 326.805333-415.36 326.805334h-0.021334z" p-id="3539" fill="#1afa29"></path></svg>