<?xml version="1.0" standalone="no"?><!DOCTYPE svg PUBLIC "-//W3C//DTD SVG 1.1//EN" "http://www.w3.org/Graphics/SVG/1.1/DTD/svg11.dtd"><svg t="1566456432266" class="icon" viewBox="0 0 1024 1024" version="1.1" xmlns="http://www.w3.org/2000/svg" p-id="2042" width="50" height="50" xmlns:xlink="http://www.w3.org/1999/xlink"><defs><style type="text/css"></style></defs><path d="M236.337004 323.568773a43.10346 43.10346 0 1 0 43.10346-43.10346 43.162025 43.162025 0 0 0-43.10346 43.10346zM572.145754 546.582328a33.791707 33.791707 0 1 0 33.791707-33.791707 33.733143 33.733143 0 0 0-33.791707 33.791707zM456.305205 323.568773a43.10346 43.10346 0 1 0 43.10346-43.10346 43.10346 43.10346 0 0 0-43.10346 43.10346z" fill="#42AE3C" p-id="2043"></path><path d="M857.999 0H166.001059A166.147441 166.147441 0 0 0 0.087876 166.440263v691.060909a166.147441 166.147441 0 0 0 165.913183 166.440264h691.997941a166.206005 166.206005 0 0 0 165.913183-166.440264v-691.060909A166.206005 166.206005 0 0 0 857.999 0zM384.27089 686.082928c-38.711124 0-69.867429-7.906205-108.695682-15.578152l-108.519989 54.406405 31.039177-93.703174C120.379326 577.211553 73.879126 507.226995 73.879126 421.957106 73.879126 274.257478 213.672549 158.124106 384.27089 158.124106c152.619045 0 286.321762 92.883271 313.20286 217.977009a267.405433 267.405433 0 0 0-29.926452-1.815499c-147.406806 0-263.891564 109.984101-263.891564 245.619445a230.685502 230.685502 0 0 0 9.604576 65.065142c-9.604575 0.585645-19.209151 1.112725-28.98942 1.112725z m457.857135 108.695682l23.425793 77.597941-85.152759-46.851587c-31.039176 7.789076-62.195482 15.636717-93.11753 15.636717-147.699628 0-264.008693-100.96517-264.008693-225.297569S539.583901 390.625107 687.283529 390.625107c139.442036 0 263.540177 101.140864 263.540178 225.239005 0.058564 70.218816-46.383071 132.18004-108.695682 178.914498z" fill="#42AE3C" p-id="2044"></path><path d="M741.279984 546.582328a33.791707 33.791707 0 1 0 33.791707-33.791707 33.733143 33.733143 0 0 0-33.791707 33.791707z" fill="#42AE3C" p-id="2045"></path></svg>