<?xml version="1.0" standalone="no"?><!DOCTYPE svg PUBLIC "-//W3C//DTD SVG 1.1//EN" "http://www.w3.org/Graphics/SVG/1.1/DTD/svg11.dtd"><svg t="1566347612840" class="icon" viewBox="0 0 1024 1024" version="1.1" xmlns="http://www.w3.org/2000/svg" p-id="3491" xmlns:xlink="http://www.w3.org/1999/xlink" width="200" height="200"><defs><style type="text/css"></style></defs><path d="M511.8 129.4c51.8 0 102.1 10.1 149.4 30.1 45.7 19.3 86.8 47 122 82.3 35.3 35.3 63 76.3 82.3 122 20 47.3 30.1 97.5 30.1 149.4s-10.1 102.1-30.1 149.4c-19.3 45.7-47 86.8-82.3 122-35.3 35.3-76.3 63-122 82.3-47.3 20-97.5 30.1-149.4 30.1s-102.1-10.1-149.4-30.1c-45.7-19.3-86.8-47-122-82.3-35.3-35.3-63-76.3-82.3-122-20-47.3-30.1-97.5-30.1-149.4s10.1-102.1 30.1-149.4c19.3-45.7 47-86.8 82.3-122 35.3-35.3 76.3-63 122-82.3 47.3-19.9 97.6-30.1 149.4-30.1M329.6 762.7c10.5 0 21.1-2.5 30.5-7.2l218.4-109.1c29.1-14.6 53.2-38.6 67.8-67.8l109.3-218.5c10.7-21.3 9.6-46.2-3-66.4-12.4-20-34.6-32.4-58.1-32.4-10.5 0-21.1 2.5-30.6 7.2L446.7 377.2c-29.8 14.9-54.5 39.6-69.4 69.4L268.6 663.8c-10.7 21.3-9.6 46.2 2.9 66.4 12.4 20 34.6 32.5 58.1 32.5M511.8 65.4C264.5 65.4 64 265.9 64 513.3s200.5 447.8 447.8 447.8 447.8-200.5 447.8-447.8S759.1 65.4 511.8 65.4zM329.6 698.7c-2.9 0-5.3-3.2-3.8-6.2l108.7-217.2c8.8-17.7 23.2-32 40.8-40.8l217.3-108.7c0.6-0.3 1.3-0.5 1.9-0.5 2.9 0 5.3 3.2 3.8 6.2L589.1 550c-8.5 16.9-22.2 30.7-39.2 39.1L331.5 698.2c-0.6 0.3-1.3 0.5-1.9 0.5z" fill="" p-id="3492"></path></svg>