<?xml version="1.0" standalone="no"?><!DOCTYPE svg PUBLIC "-//W3C//DTD SVG 1.1//EN" "http://www.w3.org/Graphics/SVG/1.1/DTD/svg11.dtd"><svg t="1566434770745" class="icon" viewBox="0 0 1024 1024" version="1.1" xmlns="http://www.w3.org/2000/svg" p-id="3517" xmlns:xlink="http://www.w3.org/1999/xlink" width="50" height="50"><defs><style type="text/css"></style></defs><path d="M56.888889 512C56.888889 260.636444 260.636444 56.888889 512 56.888889s455.111111 203.747556 455.111111 455.111111-203.747556 455.111111-455.111111 455.111111S56.888889 763.363556 56.888889 512z m56.888889 0c0 219.932444 178.289778 398.222222 398.222222 398.222222s398.222222-178.289778 398.222222-398.222222S731.932444 113.777778 512 113.777778 113.777778 292.067556 113.777778 512z m618.126222-212.394667l-130.161778 287.943111a28.444444 28.444444 0 0 1-14.193778 14.222223L299.605333 731.875556a5.688889 5.688889 0 0 1-7.509333-7.509334l130.161778-287.943111a28.444444 28.444444 0 0 1 14.193778-14.222222l287.943111-130.133333a5.688889 5.688889 0 0 1 7.509333 7.509333z m-262.257778 170.069334l-69.831111 154.510222 154.510222-69.859556 69.859556-154.510222-154.510222 69.859556z" p-id="3518" fill="#2c2c2c"></path></svg>