<?xml version="1.0" standalone="no"?><!DOCTYPE svg PUBLIC "-//W3C//DTD SVG 1.1//EN" "http://www.w3.org/Graphics/SVG/1.1/DTD/svg11.dtd"><svg t="1566357915416" class="icon" viewBox="0 0 1024 1024" version="1.1" xmlns="http://www.w3.org/2000/svg" p-id="2977" data-spm-anchor-id="a313x.7781069.0.i1" width="200" height="200" xmlns:xlink="http://www.w3.org/1999/xlink"><defs><style type="text/css"></style></defs><path d="M924 159.603h-824c-55.229 0-100 44.72-100 99.886v531.309c0 55.166 44.771 99.887 100 99.887h824c55.229 0 100-44.721 100-99.887v-531.31c0-55.166-44.772-99.885-100-99.885z m-821 44.948h818c32.032 0 58 25.937 58 57.934v21.136c-3.612 7.818-16.938 15.352-32.825 22.116l-407.552 171.95c-29.603 14.42-29.603 14.42-59.207 0l-407.55-171.95c-13.695-6.489-22.571-12.723-26.866-18.632v-24.621c0-31.996 25.967-57.933 58-57.933z m818 641.183h-818c-32.033 0-58-25.939-58-57.936v-452.3l412.979 176.767c51.041 21.211 51.041 21.211 102.083 0L979 332.948v454.851c0 31.996-25.968 57.935-58 57.935z" fill="#2c2c2c" p-id="2978"></path></svg>