<?xml version="1.0" standalone="no"?><!DOCTYPE svg PUBLIC "-//W3C//DTD SVG 1.1//EN" "http://www.w3.org/Graphics/SVG/1.1/DTD/svg11.dtd"><svg t="1566347679118" class="icon" viewBox="0 0 1024 1024" version="1.1" xmlns="http://www.w3.org/2000/svg" p-id="5505" xmlns:xlink="http://www.w3.org/1999/xlink" width="200" height="200"><defs><style type="text/css"></style></defs><path d="M512 865.084641c-212.174354 0-319.754534-46.846958-319.754534-139.239228 0-37.244252 36.840046-63.916728 67.74594-79.733972 39.316447-20.125363 93.589538-35.601846 152.819524-43.578518l3.982708-0.536212 0-20.585851-1.961678-1.372254c-66.018599-46.165436-98.110505-126.798894-98.110505-246.5073 0-56.284911 17.531282-102.751199 50.698682-134.37443 33.228799-31.682583 82.07632-48.428989 141.261281-48.428989l6.636141 0c59.196217 0 108.050901 16.746406 141.28277 48.428989 33.169447 31.621185 50.701752 78.086449 50.701752 134.37443 0 44.11166 0 178.348967-97.321536 246.686379l-1.90028 1.335415-0.472767 20.49887 4.071735 0.550539c59.139935 8.019651 113.303532 23.506367 152.511509 43.608194 30.821983 15.802918 67.564815 42.448788 67.564815 79.633688C831.754534 818.23666 724.17333 865.084641 512 865.084641zM508.680395 191.437054c-41.953508 0-75.965136 9.078773-101.089349 26.984584-33.285081 23.722284-50.16247 62.450331-50.16247 115.109668 0 110.975511 29.512151 182.718485 90.222861 219.328287 6.079462 3.64911 9.854439 10.324136 9.854439 17.421788l0 49.89948c0 10.505261-7.884574 19.211551-18.340717 20.253276-55.088666 5.498224-107.649765 18.385742-147.999752 36.290531-36.450167 16.174378-58.211796 34.537608-58.211796 49.120744 0 37.259602 31.530111 64.354704 93.714382 80.532151 45.909609 11.94403 108.264772 17.998933 185.333032 17.998933 77.075423 0 139.431609-6.054903 185.338149-17.998933 62.178131-16.176424 93.704149-43.271526 93.704149-80.532151 0-14.592346-21.762653-32.959669-58.213843-49.129954-40.342824-17.897625-92.911086-30.782074-148.019195-36.281321-10.491958-1.049912-18.538215-10.145058-18.316158-20.704554l1.096984-49.894364c0.164752-7.02295 3.841491-13.377682 9.834996-16.999163 60.817134-36.666084 89.14225-106.359376 89.14225-219.325218 0.011256-52.646034-16.865109-91.368964-50.161447-115.091248-25.12933-17.903765-59.140958-26.981515-101.089349-26.981515L508.680395 191.438077z" p-id="5506"></path></svg>