<?xml version="1.0" standalone="no"?><!DOCTYPE svg PUBLIC "-//W3C//DTD SVG 1.1//EN" "http://www.w3.org/Graphics/SVG/1.1/DTD/svg11.dtd"><svg t="1566290555722" class="icon" viewBox="0 0 1024 1024" version="1.1" xmlns="http://www.w3.org/2000/svg" p-id="5978" xmlns:xlink="http://www.w3.org/1999/xlink" width="200" height="200"><defs><style type="text/css"></style></defs><path d="M441.685333 867.132952C211.577905 867.132952 24.380952 679.887238 24.380952 449.828571S211.577905 32.52419 441.685333 32.52419s417.304381 187.196952 417.304381 417.304381c-0.048762 230.058667-187.245714 417.304381-417.304381 417.304381z m0-773.363809c-196.36419 0-356.10819 159.744-356.10819 356.059428 0 196.412952 159.744 356.10819 356.10819 356.108191 196.315429 0 356.10819-159.695238 356.108191-356.108191-0.048762-196.315429-159.792762-356.059429-356.108191-356.059428z m522.48381 897.657905a35.352381 35.352381 0 0 1-25.209905-10.435048l-179.541333-179.590095a503.710476 503.710476 0 0 0 49.298285-51.2l180.46781 180.516571a35.59619 35.59619 0 0 1-25.014857 60.708572z" p-id="5979"></path></svg>