<?xml version="1.0" standalone="no"?><!DOCTYPE svg PUBLIC "-//W3C//DTD SVG 1.1//EN" "http://www.w3.org/Graphics/SVG/1.1/DTD/svg11.dtd"><svg t="1566350406065" class="icon" viewBox="0 0 1024 1024" version="1.1" xmlns="http://www.w3.org/2000/svg" p-id="3389" xmlns:xlink="http://www.w3.org/1999/xlink" width="200" height="200"><defs><style type="text/css"></style></defs><path d="M349.48 400.09c0 11.98 9.71 21.69 21.69 21.69s21.69-9.71 21.69-21.69-9.71-21.69-21.69-21.69-21.69 9.71-21.69 21.69zM482.72 399.29c0.01 11.98 9.72 21.69 21.7 21.68 11.98-0.01 21.69-9.72 21.68-21.7 0-11.98-9.72-21.69-21.7-21.68a21.684 21.684 0 0 0-21.68 21.7zM554.41 532.23c-0.01 8.32 6.72 15.08 15.05 15.11 8.32 0.01 15.08-6.72 15.11-15.05 0.01-8.33-6.72-15.09-15.05-15.11h-0.06c-8.31 0-15.05 6.73-15.05 15.05z" fill="#3DB135" p-id="3390"></path><path d="M651.71 533.71c-0.01 11.23 9.07 20.34 20.3 20.36 11.23 0.01 20.34-9.08 20.36-20.3 0.01-11.23-9.08-20.34-20.3-20.36-3.59-0.01-7.11 0.93-10.21 2.73a20.28 20.28 0 0 0-10.15 17.57z" fill="#3DB135" p-id="3391"></path><path d="M512.69 65.92C266.04 66.18 66.29 266.35 66.56 513s200.43 446.39 447.07 446.13c246.47-0.26 446.13-200.14 446.13-446.6 0.01-246.63-199.9-446.59-446.54-446.6-0.18-0.01-0.35-0.01-0.53-0.01z m-76.41 549.72c-22.23-0.85-44.29-4.12-65.82-9.73l-65.85 32.46 18.69-56.02c-45.06-26.54-73.3-74.38-74.81-126.65 0-89.32 84.55-159.15 187.78-159.15 91.99 0 173.15 56.02 189.41 131.55-5.91-0.68-11.86-0.96-17.81-0.83-84.65-3.32-155.96 62.62-159.28 147.26-0.01 0.44-0.03 0.88-0.04 1.32 0.17 13.19 2.08 26.3 5.67 38.99-6.5 0-12.19 0.8-17.81 0.8h-0.13z m274.75 65.79l13.8 47.09-51.22-28.43a226.31 226.31 0 0 1-56.08 9.73c-89.41 0-159.32-60.89-159.32-135.59s69.91-135.61 159.32-135.61c84.55 0 159.36 60.89 159.36 135.61a141.147 141.147 0 0 1-65.86 107.2z" fill="#3DB135" p-id="3392"></path></svg>