<?xml version="1.0" standalone="no"?><!DOCTYPE svg PUBLIC "-//W3C//DTD SVG 1.1//EN" "http://www.w3.org/Graphics/SVG/1.1/DTD/svg11.dtd"><svg t="1566370251903" class="icon" viewBox="0 0 1024 1024" version="1.1" xmlns="http://www.w3.org/2000/svg" p-id="1859" xmlns:xlink="http://www.w3.org/1999/xlink" width="200" height="200"><defs><style type="text/css"></style></defs><path d="M495.7 724.5c0-152.5 123.6-276 276-276 16.9 0 33.3 1.8 49.3 4.6V82.8c0-19.2-15.5-34.7-34.7-34.7H34.7C15.5 48.1 0 63.6 0 82.8v783.4c0 19.2 15.5 34.7 34.7 34.7h524.7c-39.8-47.8-63.7-109.3-63.7-176.4zM327 186.9c0-9.6 7.8-17.3 17.3-17.3h385.9c9.6 0 17.4 7.7 17.4 17.3V408c0 9.5-7.8 17.3-17.4 17.3H344.3c-9.5 0-17.3-7.7-17.3-17.3V186.9zM73.3 169.6H280v33.2H73.3v-33.2z m0 104.7H280v33.3H73.3v-33.3z m0 104H280v33.3H73.3v-33.3z m0 104.1h482.8v33.3H73.3v-33.3z m400.4 292H73.3v-49.8h400.4v49.8z m14.5-138H73.4v-49.8h414.8v49.8z m526.6 22.6c-36.3-134.3-174.4-213.6-308.6-177.4-73.4 19.9-134.1 72-164.7 141.7-56 127.2 1.7 275.7 129 331.7s275.8-1.8 331.8-129c4-9.2 7.5-18.6 10.4-28.1 13.6-45.3 14.5-93.4 2.1-138.9z m-78.1-3.9L726.4 865.3c-5.1 5.2-11.7 7.6-18.4 7.6s-13.3-2.4-18.4-7.6L580.1 755.9c-10.2-10.1-10.2-26.6 0-36.8 10.2-10.1 26.6-10.1 36.8 0l91.1 91.1 191.9-191.8c10.2-10.2 26.6-10.2 36.8 0 10.2 10.1 10.2 26.6 0 36.7z" fill="#1296db" p-id="1860"></path></svg>